<?xml version="1.0" ?><svg height="512" id="svg2" overflow="visible" style="fill-rule:evenodd;stroke-width:0.50099999;stroke-linejoin:bevel;overflow:visible" version="1.1" viewBox="0 0 409.6 409.6" width="512" xmlns="http://www.w3.org/2000/svg" xmlns:cc="http://creativecommons.org/ns#" xmlns:dc="http://purl.org/dc/elements/1.1/" xmlns:inkscape="http://www.inkscape.org/namespaces/inkscape" xmlns:rdf="http://www.w3.org/1999/02/22-rdf-syntax-ns#" xmlns:sodipodi="http://sodipodi.sourceforge.net/DTD/sodipodi-0.dtd" xmlns:svg="http://www.w3.org/2000/svg"><defs id="defs4"><marker id="DefaultArrow2" markerHeight="1" markerUnits="strokeWidth" markerWidth="1" orient="auto" overflow="visible" style="overflow:visible" viewBox="0 0 1 1"><g id="g7" transform="scale(0.00925926,0.00925926)"><path d="M -9,54 -9,-54 117,0 z" id="path9"/></g></marker><marker id="DefaultArrow3" markerHeight="1" markerUnits="strokeWidth" markerWidth="1" orient="auto" overflow="visible" style="overflow:visible" viewBox="0 0 1 1"><g id="g12" transform="scale(0.00925926,0.00925926)"><path d="M -27,54 -9,0 -27,-54 135,0 z" id="path14"/></g></marker><marker id="DefaultArrow4" markerHeight="1" markerUnits="strokeWidth" markerWidth="1" orient="auto" overflow="visible" style="overflow:visible" viewBox="0 0 1 1"><g id="g17" transform="scale(0.00925926,0.00925926)"><path d="M -9,0 -9,-45 C -9,-51.708 2.808,-56.58 9,-54 L 117,-9 C 120.916,-7.369 126,-4.242 126,0 126,4.242 120.916,7.369 117,9 L 9,54 C 2.808,56.58 -9,51.708 -9,45 z" id="path19"/></g></marker><marker id="DefaultArrow5" markerHeight="1" markerUnits="strokeWidth" markerWidth="1" orient="auto" overflow="visible" style="overflow:visible" viewBox="0 0 1 1"><g id="g22" transform="scale(0.00925926,0.00925926)"><path d="M -54,0 C -54,29.807 -29.807,54 0,54 29.807,54 54,29.807 54,0 54,-29.807 29.807,-54 0,-54 -29.807,-54 -54,-29.807 -54,0 z" id="path24"/></g></marker><marker id="DefaultArrow6" markerHeight="1" markerUnits="strokeWidth" markerWidth="1" orient="auto" overflow="visible" style="overflow:visible" viewBox="0 0 1 1"><g id="g27" transform="scale(0.00925926,0.00925926)"><path d="M -63,0 0,63 63,0 0,-63 z" id="path29"/></g></marker><marker id="DefaultArrow7" markerHeight="1" markerUnits="strokeWidth" markerWidth="1" orient="auto" overflow="visible" style="overflow:visible" viewBox="0 0 1 1"><g id="g32" transform="scale(0.00925926,0.00925926)"><path d="M 18,-54 108,-54 63,0 108,54 18,54 -36,0 z" id="path34"/></g></marker><marker id="DefaultArrow8" markerHeight="1" markerUnits="strokeWidth" markerWidth="1" orient="auto" overflow="visible" style="overflow:visible" viewBox="0 0 1 1"><g id="g37" transform="scale(0.00925926,0.00925926)"><path d="M -36,0 18,-54 54,-54 18,-18 27,-18 63,-54 99,-54 63,-18 72,-18 108,-54 144,-54 90,0 144,54 108,54 72,18 63,18 99,54 63,54 27,18 18,18 54,54 18,54 z" id="path39"/></g></marker><marker id="DefaultArrow9" markerHeight="1" markerUnits="strokeWidth" markerWidth="1" orient="auto" overflow="visible" style="overflow:visible" viewBox="0 0 1 1"><g id="g42" transform="scale(0.00925926,0.00925926)"><path d="M 0,45 -45,0 0,-45 45,0 z M 0,63 -63,0 0,-63 63,0 z" id="path44"/></g></marker><filter color-interpolation-filters="sRGB" id="StainedFilter"><feBlend id="feBlend47" in="SourceGraphic" in2="BackgroundImage" mode="multiply" result="blend"/><feComposite id="feComposite49" in="blend" in2="SourceAlpha" operator="in" result="comp"/></filter><filter color-interpolation-filters="sRGB" id="BleachFilter"><feBlend id="feBlend52" in="SourceGraphic" in2="BackgroundImage" mode="screen" result="blend"/><feComposite id="feComposite54" in="blend" in2="SourceAlpha" operator="in" result="comp"/></filter><filter color-interpolation-filters="sRGB" id="InvertTransparencyBitmapFilter"><feComponentTransfer id="feComponentTransfer57"><feFuncR amplitude="1.055" exponent=".416666666" id="feFuncR59" offset="-0.055" type="gamma"/><feFuncG amplitude="1.055" exponent=".416666666" id="feFuncG61" offset="-0.055" type="gamma"/><feFuncB amplitude="1.055" exponent=".416666666" id="feFuncB63" offset="-0.055" type="gamma"/></feComponentTransfer><feComponentTransfer id="feComponentTransfer65"><feFuncR id="feFuncR67" intercept="1" slope="-1" type="linear"/><feFuncG id="feFuncG69" intercept="1" slope="-1" type="linear"/><feFuncB id="feFuncB71" intercept="1" slope="-1" type="linear"/><feFuncA id="feFuncA73" intercept="0" slope="1" type="linear"/></feComponentTransfer><feComponentTransfer id="feComponentTransfer75"><feFuncR amplitude="1" exponent="2.4" id="feFuncR77" offset="0" type="gamma"/><feFuncG amplitude="1" exponent="2.4" id="feFuncG79" offset="0" type="gamma"/><feFuncB amplitude="1" exponent="2.4" id="feFuncB81" offset="0" type="gamma"/></feComponentTransfer></filter><linearGradient gradientTransform="matrix(0,-1,1,0,173.977,289.2)" gradientUnits="userSpaceOnUse" id="LinearGradient" x1="0" x2="316.79501" y1="0" y2="0"><stop id="stop84" offset="0" stop-color="#abd4ff"/><stop id="stop86" offset="1" stop-color="#56a1f0"/></linearGradient><linearGradient gradientTransform="matrix(0,-1,1,0,164.255,349.788)" gradientUnits="userSpaceOnUse" id="LinearGradient_1" x1="0" x2="202.741" y1="0" y2="0"><stop id="stop89" offset="0" stop-color="#114cdf"/><stop id="stop91" offset="1" stop-color="#042471"/></linearGradient><linearGradient gradientTransform="matrix(0.05100605,-0.99869834,0.99904058,0.04430513,203.411,309.242)" gradientUnits="userSpaceOnUse" id="LinearGradient_2" x1="0" x2="170.528" y1="0" y2="0"><stop id="stop94" offset="0" stop-color="#7a9ef9"/><stop id="stop96" offset="1" stop-color="#37559e"/></linearGradient><linearGradient gradientTransform="matrix(0.00578922,-0.99998324,0.99910069,0.15823467,183.76,317.632)" gradientUnits="userSpaceOnUse" id="LinearGradient_3" x1="0" x2="258.07599" y1="0" y2="0"><stop id="stop99" offset="0" stop-color="#ffffff"/><stop id="stop101" offset="1" stop-color="#000000"/></linearGradient><linearGradient gradientTransform="matrix(-0.23988918,0.97080028,-0.96948188,-0.24522456,208.527,23.632)" gradientUnits="userSpaceOnUse" id="LinearGradient_4" x1="0" x2="137.784" y1="0" y2="0"><stop id="stop104" offset="0" stop-color="#ffffff"/><stop id="stop106" offset="1" stop-color="#000000"/></linearGradient><linearGradient gradientTransform="matrix(0,-1,1,0,80.252,314.814)" gradientUnits="userSpaceOnUse" id="LinearGradient_5" x1="0" x2="195.716" y1="0" y2="0"><stop id="stop109" offset="0" stop-color="#fc1717"/><stop id="stop111" offset="1" stop-color="#860909"/></linearGradient><linearGradient gradientTransform="matrix(0.05285012,-0.99860246,0.99913352,0.04281568,119.408,275.672)" gradientUnits="userSpaceOnUse" id="LinearGradient_6" x1="0" x2="164.634" y1="0" y2="0"><stop id="stop114" offset="0" stop-color="#ff7979"/><stop id="stop116" offset="1" stop-color="#ba2222"/></linearGradient><linearGradient gradientTransform="matrix(0.00832512,-0.99996535,0.99911861,0.11002979,99.754,226.613)" gradientUnits="userSpaceOnUse" id="LinearGradient_7" x1="0" x2="179.823" y1="0" y2="0"><stop id="stop119" offset="0" stop-color="#ffffff"/><stop id="stop121" offset="1" stop-color="#000000"/></linearGradient><linearGradient gradientTransform="matrix(0,-1,1,0,248.255,302.796)" gradientUnits="userSpaceOnUse" id="LinearGradient_8" x1="0" x2="188.582" y1="0" y2="0"><stop id="stop124" offset="0" stop-color="#29e02a"/><stop id="stop126" offset="1" stop-color="#008001"/></linearGradient><linearGradient gradientTransform="matrix(0.05482819,-0.9984958,0.99923891,0.04129527,287.412,265.074)" gradientUnits="userSpaceOnUse" id="LinearGradient_9" x1="0" x2="158.642" y1="0" y2="0"><stop id="stop129" offset="0" stop-color="#6afa6b"/><stop id="stop131" offset="1" stop-color="#0eb60f"/></linearGradient><linearGradient gradientTransform="matrix(0.00830244,-0.99996553,0.99911848,0.110324,267.762,225.113)" gradientUnits="userSpaceOnUse" id="LinearGradient_10" x1="0" x2="179.823" y1="0" y2="0"><stop id="stop134" offset="0" stop-color="#ffffff"/><stop id="stop136" offset="1" stop-color="#000000"/></linearGradient></defs><path d="m 127.27504,25.101461 c -21.33112,11.4228 -35.1088,24.43176 -45.57504,58.32504 0.0232,0.83536 1.03912,1.47072 1.8,1.12504 20.42584,-14.9572 35.0712,-26.8116 45.05,-58.02504 0.0878,-0.71608 -0.5536,-1.4308 -1.27496,-1.42504 z m 155.04992,0 c -0.72136,-0.008 -1.36272,0.70896 -1.27496,1.42504 9.9788,31.21344 24.62416,43.06784 45.05,58.02504 0.76088,0.34568 1.7768,-0.28968 1.8,-1.12504 -10.46624,-33.89328 -24.24392,-46.90224 -45.57504,-58.32504 z m -198.1,1.1 c -0.0881,0.012 -0.16608,0.0416 -0.24992,0.0752 C 68.2,44.624501 60.03648,61.739941 62.5,97.126661 c 0.32248,0.77096 1.49016,0.99696 2.07504,0.4 13.65592,-21.31768 23.05152,-37.66344 21.1,-70.37496 -0.13232,-0.52464 -0.64328,-0.906 -1.17504,-0.95008 -0.0886,-0.008 -0.18688,-0.012 -0.27504,0 z m 240.87504,0 c -0.53176,0.044 -1.04272,0.42544 -1.17504,0.95008 -1.95152,32.71152 7.44408,49.05728 21.1,70.37496 0.58488,0.59696 1.75256,0.37096 2.07504,-0.4 2.46352,-35.38672 -5.7,-52.50216 -21.47504,-70.85 -0.16768,-0.0664 -0.34768,-0.0896 -0.52496,-0.0752 z M 45.6,65.176501 c -0.26848,0.008 -0.51624,0.10296 -0.72496,0.27504 -9.37216,22.30832 -11.89552,41.083279 1.32496,73.999989 0.54392,0.63456 1.72688,0.49776 2.1,-0.25008 6.4428,-24.48311 10.36112,-42.921669 -1.55,-73.449909 -0.23928,-0.38216 -0.70256,-0.58816 -1.15,-0.57504 z m 318.4,0 c -0.44744,-0.0128 -0.91072,0.19288 -1.15,0.57504 -11.91112,30.52824 -7.9928,48.966799 -1.55,73.449909 0.37312,0.74784 1.55608,0.88464 2.1,0.25008 13.22048,-32.91671 10.69712,-51.691669 1.32496,-73.999989 -0.20872,-0.17208 -0.45648,-0.2672 -0.72496,-0.27504 z m -251.2,9.87504 c -22.72224,8.31856 -38.2092,19.2844 -53.32496,51.374949 -0.0947,0.83032 0.8232,1.5856 1.62496,1.35 22.32152,-11.94495 38.4928,-21.61935 52.75,-51.124949 0.18736,-0.69672 -0.33496,-1.50464 -1.05,-1.6 z m 184,0 c -0.71504,0.0954 -1.23736,0.90328 -1.05,1.6 14.2572,29.505599 30.42848,39.179999 52.75,51.124949 0.80176,0.2356 1.71968,-0.51968 1.62496,-1.35 C 335.0092,94.335941 319.52224,83.370101 296.8,75.051541 z M 14.6,99.326501 c -0.35544,0.0512 -0.67848,0.24752 -0.87504,0.55 -2.23616,24.093439 1.00008,42.776549 23.5,70.199989 0.70952,0.44184 1.79392,-0.0744 1.92504,-0.9 -1.21112,-25.2876 -2.9916,-44.036 -23.52504,-69.575029 -0.2744,-0.234 -0.66952,-0.32656 -1.02496,-0.27496 z m 380.12496,0 c -0.26824,0.012 -0.54416,0.0995 -0.74992,0.27496 -20.53344,25.539029 -22.31392,44.287429 -23.52504,69.575029 0.13112,0.82544 1.21552,1.34184 1.92504,0.9 22.49992,-27.42344 25.73616,-46.10655 23.5,-70.199989 -0.24568,-0.37808 -0.70288,-0.57072 -1.15008,-0.55 z M 71.1,126.47649 c -0.26824,0.012 -0.5192,0.0994 -0.72496,0.27504 -20.53344,25.53888 -22.3388,44.31224 -23.55008,69.6 0.1312,0.82536 1.2156,1.3168 1.92504,0.87496 22.49992,-27.42344 25.76112,-46.10656 23.52504,-70.2 -0.24568,-0.37808 -0.72792,-0.57072 -1.17504,-0.55 z m 267.12496,0 c -0.35544,0.0512 -0.70344,0.24752 -0.9,0.55 -2.23608,24.09344 1.02512,42.77656 23.52504,70.2 0.70944,0.44184 1.79384,-0.0496 1.92504,-0.87496 -1.21128,-25.28776 -3.01664,-44.06112 -23.55008,-69.6 -0.27432,-0.23416 -0.64448,-0.32664 -1,-0.27504 z m -328.74992,24.15 c -0.53336,-0.0184 -1.0836,0.29048 -1.27504,0.8 2.94344,24.01736 10.10336,41.56936 37.92496,63.57496 0.7872,0.28072 1.74768,-0.41552 1.7,-1.24992 -6.56592,-24.45032 -12.32608,-42.41704 -37.82496,-63 -0.15896,-0.0853 -0.3472,-0.11896 -0.52496,-0.12504 z m 390.64992,0 c -0.17776,0.008 -0.366,0.04 -0.52496,0.12504 -25.49888,20.58296 -31.25904,38.54968 -37.82496,63 -0.048,0.8344 0.9128,1.53064 1.7,1.24992 27.8216,-22.0056 34.98152,-39.5576 37.92496,-63.57496 -0.19144,-0.50952 -0.74168,-0.81832 -1.27504,-0.8 z m -335.47496,36.2 c -0.26576,0.0352 -0.51144,0.156 -0.7,0.35 -6.86248,23.20344 -7.30952,42.16144 9.45,73.42496 0.6104,0.57104 1.7864,0.30928 2.07504,-0.47496 3.71168,-25.04304 5.5704,-43.81648 -9.62504,-72.85 -0.22392,-0.2828 -0.56624,-0.43176 -0.92504,-0.45 -0.0897,-0.008 -0.1864,-0.012 -0.27496,0 z m 280.02504,0 c -0.3588,0.0184 -0.70112,0.1672 -0.92504,0.45 -15.19544,29.03352 -13.33672,47.80696 -9.62504,72.85 0.28864,0.78424 1.46464,1.046 2.07504,0.47496 16.75952,-31.26352 16.31248,-50.22152 9.45,-73.42496 -0.25144,-0.25864 -0.61624,-0.36824 -0.97496,-0.35 z M 1.2,199.92649 c -0.6184,0.0592 -1.19024,0.6188 -1.2,1.25 10.91888,21.59344 23.61184,35.69088 57.25,46.95 0.83568,0 1.47776,-1.00624 1.15,-1.77496 -14.47344,-20.7716 -25.97944,-35.6912 -56.95,-46.4 -0.0892,-0.0128 -0.16168,-0.0336 -0.25,-0.0248 z m 407.2,0 c -0.0883,-0.008 -0.1608,0.012 -0.25,0.0248 -30.97056,10.7088 -42.47656,25.6284 -56.95,46.4 -0.32776,0.76872 0.31432,1.77496 1.15,1.77496 33.63816,-11.25912 46.33112,-25.35656 57.25,-46.95 -0.01,-0.6312 -0.5816,-1.19112 -1.2,-1.25 z m -320.8,46 c -0.44432,0.0544 -0.87096,0.33608 -1.05,0.75 1.81936,24.12848 8.13584,41.99464 34.9,65.27504 0.7732,0.31712 1.75856,-0.36448 1.75,-1.2 -5.41776,-24.73024 -10.3144,-42.92448 -34.82496,-64.67504 -0.23232,-0.13872 -0.50848,-0.18256 -0.77504,-0.15 z m 234.12496,0 c -0.17728,0.0144 -0.34512,0.0576 -0.5,0.15 -24.51056,21.75056 -29.4072,39.9448 -34.82496,64.67504 -0.009,0.83552 0.9768,1.51712 1.75,1.2 26.76416,-23.2804 33.08064,-41.14656 34.9,-65.27504 -0.21488,-0.49672 -0.79312,-0.79216 -1.32504,-0.75 z m -294.24992,3.82504 c -0.72112,-0.024 -1.36992,0.68184 -1.3,1.4 13.27424,20.23096 27.46032,32.81392 62.14992,40.22496 0.83008,-0.097 1.36208,-1.17296 0.95008,-1.9 -16.714,-19.01496 -29.82296,-32.56128 -61.8,-39.72496 z m 354.64992,0 c -31.97704,7.16368 -45.086,20.71 -61.8,39.72496 -0.412,0.72704 0.12,1.80304 0.95008,1.9 34.6896,-7.41104 48.87568,-19.994 62.14992,-40.22496 0.0696,-0.71816 -0.57888,-1.42408 -1.3,-1.4 z m -246.2,40.57496 c -0.61744,0.0672 -1.174,0.6188 -1.17496,1.25 11.21872,21.43912 24.08312,35.3608 57.87496,46.15 0.8356,-0.0144 1.48872,-1.01112 1.15008,-1.77496 -14.7616,-20.56776 -26.48328,-35.34888 -57.6,-45.62504 -0.0894,-0.012 -0.16184,-0.01 -0.25008,0 z m 137.5,0 c -31.11672,10.27616 -42.8384,25.05728 -57.6,45.62504 -0.33864,0.76384 0.31448,1.76056 1.15008,1.77496 33.79184,-10.7892 46.65624,-24.71088 57.87496,-46.15 0,-0.72136 -0.70984,-1.34488 -1.42504,-1.25 z m -213.5,4.92504 c -5.84176,0.0416 -12.18136,0.60792 -19.24992,1.8 -0.67656,0.2504 -1.01104,1.13656 -0.67504,1.77496 19.93408,13.71592 37.80672,20.02008 72.72496,13.77496 0.73192,-0.40328 0.83128,-1.60752 0.17504,-2.12496 -17.70272,-8.82072 -32.1116,-15.3744 -52.97504,-15.22496 z m 289.75008,0 c -20.86344,-0.14944 -35.27232,6.40424 -52.97504,15.22496 -0.65624,0.51744 -0.55688,1.72168 0.17504,2.12496 34.91824,6.24512 52.79088,-0.0592 72.72496,-13.77496 0.336,-0.6384 0,-1.52456 -0.67504,-1.77496 -7.06856,-1.19208 -13.40816,-1.75824 -19.24992,-1.8 z M 119.7,324.20145 c -12.12888,-0.0288 -24.82992,2.44936 -40.72496,9.55008 -0.59232,0.41168 -0.71016,1.36584 -0.22504,1.9 22.7332,8.28816 41.63232,9.9136 73.87496,-4.87504 0.60776,-0.57384 0.41504,-1.76336 -0.34992,-2.1 -11.6084,-2.46448 -21.87304,-4.44904 -32.57504,-4.47504 z m 170.2,0 c -10.702,0.0264 -20.96664,2.01056 -32.57504,4.47504 -0.76496,0.33664 -0.95768,1.52616 -0.34992,2.1 32.24264,14.78864 51.14176,13.1632 73.87496,4.87504 0.48512,-0.53416 0.36728,-1.48832 -0.22504,-1.9 -15.89504,-7.10072 -28.59608,-9.57928 -40.72496,-9.55008 z m -124.67504,17.45008 c -14.88736,0.25376 -29.37024,3.54608 -47.94992,14.37496 -0.54472,0.47304 -0.5644,1.4212 -0.0248,1.9 23.49176,5.7992 42.45672,5.39016 72.92504,-12.77496 0.54256,-0.63576 0.2216,-1.79744 -0.57504,-2.05008 -8.65768,-0.88264 -16.57688,-1.58304 -24.37504,-1.44992 z m 77.02504,0 c -7.11192,0.0112 -14.37936,0.64752 -22.25,1.44992 -0.79664,0.25264 -1.1176,1.41432 -0.57504,2.05008 30.46832,18.16512 49.43328,18.57416 72.92504,12.77496 0.53936,-0.4788 0.51968,-1.42696 -0.0248,-1.9 -19.4644,-11.34456 -34.4288,-14.40088 -50.07496,-14.37496 z m -47.8,19.5 c -12.31904,1.5892 -21.45752,3.54296 -33.65,21.47496 -0.22128,0.47448 -0.15016,1.2812 0.15,1.6 11.78096,1.35216 20.86368,-1.8132 33.95,-21.45 0.2064,-0.60968 -0.0456,-1.53272 -0.45,-1.62496 z m 20.7,0 c -0.404,0.0922 -0.6564,1.01528 -0.45,1.62496 13.08632,19.6368 22.16904,22.80216 33.95,21.45 0.30016,-0.3188 0.37128,-1.12552 0.15,-1.6 -12.19248,-17.932 -21.33096,-19.88576 -33.65,-21.47496 z" id="path21122-8" style="font-size:medium;font-style:normal;font-variant:normal;font-weight:normal;font-stretch:normal;text-indent:0;text-align:start;text-decoration:none;line-height:normal;letter-spacing:normal;word-spacing:normal;text-transform:none;direction:ltr;block-progression:tb;writing-mode:lr-tb;text-anchor:start;baseline-shift:baseline;color:#000000;fill:#000000;fill-opacity:1;fill-rule:nonzero;stroke:none;stroke-width:4;marker:none;visibility:visible;display:inline;overflow:visible;enable-background:accumulate;font-family:Sans;-inkscape-font-specification:Sans"/></svg>