<?xml version="1.0" encoding="utf-8"?>
<!-- Generator: Adobe Illustrator 16.0.0, SVG Export Plug-In . SVG Version: 6.00 Build 0)  -->
<!DOCTYPE svg PUBLIC "-//W3C//DTD SVG 1.1//EN" "http://www.w3.org/Graphics/SVG/1.1/DTD/svg11.dtd">
<svg version="1.1"
	 id="svg4220" inkscape:export-ydpi="5.4299998" inkscape:export-filename="C:\Users\l.romagnoli\Downloads\shuttertop_logo_128.png" inkscape:version="0.92.1 r15371" sodipodi:docname="shuttertop_logo_final_v7.svg" inkscape:export-xdpi="5.4299998" xmlns:dc="http://purl.org/dc/elements/1.1/" xmlns:rdf="http://www.w3.org/1999/02/22-rdf-syntax-ns#" xmlns:osb="http://www.openswatchbook.org/uri/2009/osb" xmlns:sodipodi="http://sodipodi.sourceforge.net/DTD/sodipodi-0.dtd" xmlns:cc="http://creativecommons.org/ns#" xmlns:svg="http://www.w3.org/2000/svg" xmlns:inkscape="http://www.inkscape.org/namespaces/inkscape"
	 xmlns="http://www.w3.org/2000/svg" xmlns:xlink="http://www.w3.org/1999/xlink" x="0px" y="0px" width="1696.311px"
	 height="1696.027px" viewBox="0 0 1696.311 1696.027" enable-background="new 0 0 1696.311 1696.027" xml:space="preserve">
<defs>
	
	
		<inkscape:path-effect  id="path-effect4218" effect="powerstroke" cusp_linecap_type="round" end_linecap_type="zerowidth" start_linecap_type="zerowidth" interpolator_beta="0.2" interpolator_type="CubicBezierJohan" is_visible="true" sort_points="true" miter_limit="4" offset_points="0,0.5" linejoin_type="round">
		</inkscape:path-effect>
	
		<inkscape:path-effect  id="path-effect4214" effect="powerstroke" cusp_linecap_type="round" end_linecap_type="zerowidth" start_linecap_type="zerowidth" interpolator_beta="0.2" interpolator_type="CubicBezierJohan" is_visible="true" sort_points="true" miter_limit="4" offset_points="0,0.5" linejoin_type="round">
		</inkscape:path-effect>
	
		<inkscape:path-effect  id="path-effect4210" effect="powerstroke" cusp_linecap_type="round" end_linecap_type="zerowidth" start_linecap_type="zerowidth" interpolator_beta="0.2" interpolator_type="CubicBezierJohan" is_visible="true" sort_points="true" miter_limit="4" offset_points="0,0.5" linejoin_type="round">
		</inkscape:path-effect>
	
		<inkscape:path-effect  id="path-effect4206" effect="powerstroke" cusp_linecap_type="round" end_linecap_type="zerowidth" start_linecap_type="zerowidth" interpolator_beta="0.2" interpolator_type="CubicBezierJohan" is_visible="true" sort_points="true" miter_limit="4" offset_points="0,0.5" linejoin_type="round">
		</inkscape:path-effect>
	
		<inkscape:path-effect  id="path-effect4202" effect="powerstroke" cusp_linecap_type="round" end_linecap_type="zerowidth" start_linecap_type="zerowidth" interpolator_beta="0.2" interpolator_type="CubicBezierJohan" is_visible="true" sort_points="true" miter_limit="4" offset_points="0,0.5" linejoin_type="round">
		</inkscape:path-effect>
	
		<inkscape:path-effect  id="path-effect4198" effect="powerstroke" cusp_linecap_type="round" end_linecap_type="zerowidth" start_linecap_type="zerowidth" interpolator_beta="0.2" interpolator_type="CubicBezierJohan" is_visible="true" sort_points="true" miter_limit="4" offset_points="0,0.5" linejoin_type="round">
		</inkscape:path-effect>
	
		<inkscape:path-effect  id="path-effect4194" effect="powerstroke" cusp_linecap_type="round" end_linecap_type="zerowidth" start_linecap_type="zerowidth" interpolator_beta="0.2" interpolator_type="CubicBezierJohan" is_visible="true" sort_points="true" miter_limit="4" offset_points="0,0.5" linejoin_type="round">
		</inkscape:path-effect>
</defs>
<sodipodi:namedview  id="base" showgrid="false" inkscape:cy="-633.81168" inkscape:cx="4894.5348" inkscape:zoom="0.088388348" borderopacity="1.0" bordercolor="#666666" pagecolor="#ffffff" inkscape:window-maximized="1" inkscape:object-nodes="false" inkscape:snap-center="true" inkscape:window-y="-8" inkscape:window-x="1912" inkscape:window-height="1027" inkscape:window-width="1920" inkscape:current-layer="layer1" inkscape:document-units="px" inkscape:pageshadow="2" inkscape:pageopacity="0.0">
	</sodipodi:namedview>
<g id="layer1" inkscape:label="Layer 1" inkscape:groupmode="layer">
	
		<linearGradient id="path4202_1_" gradientUnits="userSpaceOnUse" x1="338.9951" y1="3.9404" x2="338.995" y2="2047.6921" gradientTransform="matrix(0.8 0 0 0.8 576.9581 -3.2958)">
		<stop  offset="0" style="stop-color:#FF512F;stop-opacity:0.9412"/>
		<stop  offset="1" style="stop-color:#DD247F;stop-opacity:0.9412"/>
	</linearGradient>
	
		<path id="path4202" inkscape:export-ydpi="1.7" inkscape:export-filename="./logo_128.png" inkscape:export-xdpi="1.7" sodipodi:type="arc" sodipodi:cx="531.42859" sodipodi:cy="738.07654" sodipodi:rx="1060.194" sodipodi:ry="1060.194" sodipodi:start="0" sodipodi:end="6.2678264" sodipodi:open="true" fill="url(#path4202_1_)" d="
		M1696.311,848.013c0,467.153-377.75,846.354-844.897,848.151C384.265,1697.957,3.614,1321.666,0.025,854.525
		C-3.562,387.388,371.265,5.295,838.386-0.085c467.121-5.381,850.65,367.976,857.825,835.072"/>
	
		<path id="path4193" inkscape:export-ydpi="1.7" inkscape:export-filename="./logo_128.png" inkscape:export-xdpi="1.7" sodipodi:type="arc" sodipodi:cx="531.42859" sodipodi:cy="738.07654" sodipodi:rx="938.88104" sodipodi:ry="938.88104" sodipodi:start="0" sodipodi:end="6.2678264" sodipodi:open="true" fill="#FFFFFF" fill-opacity="0.9333" d="
		M1599.261,848.013c0,413.7-334.526,749.512-748.221,751.1c-413.695,1.59-750.79-331.645-753.967-745.33
		c-3.177-413.687,328.76-752.059,742.431-756.824c413.67-4.765,753.313,325.87,759.668,739.519"/>
	
		<g id="g4640" transform="matrix(1.1872076,0,0,1.1872076,-99.487441,-138.17349)" inkscape:export-ydpi="1.7" inkscape:export-filename="./logo_128.png" inkscape:export-xdpi="1.7">
		
			<linearGradient id="SVGID_1_" gradientUnits="userSpaceOnUse" x1="898.9161" y1="398.7902" x2="898.916" y2="1689.8577" gradientTransform="matrix(1 0 0 1 5.590082e-006 4.309296e-005)">
			<stop  offset="0" style="stop-color:#FF512F;stop-opacity:0.9412"/>
			<stop  offset="1" style="stop-color:#DD247F;stop-opacity:0.9412"/>
		</linearGradient>
		<path fill="url(#SVGID_1_)" d="M1091.672,1185.26L958.174,953.645c-1.692-2.8-21.595-35.382-31.754-35.612
			c-8.226-0.187-22.867,20.216-29.596,30.301l-15.443,26.569l-172.56,299.102c-2.69,5.798-5.998,14.738-4.528,21.207
			c0.92,4.045,5.435,6.849,10.681,8.773c27.001,4.717,54.665,7.442,83.238,7.442c108.451,0,208.406-36.108,288.689-96.335
			c1.719-1.431,5.817-5.709,6.809-14.639C1094.426,1194.024,1092.975,1188.616,1091.672,1185.26z"/>
		
			<linearGradient id="path4644_1_" gradientUnits="userSpaceOnUse" x1="241.9046" y1="573.2739" x2="241.9045" y2="1776.5925" gradientTransform="matrix(1.1276 0 0 1.1276 299.0065 -294.1421)">
			<stop  offset="0" style="stop-color:#FF512F;stop-opacity:0.9412"/>
			<stop  offset="1" style="stop-color:#DD247F;stop-opacity:0.9412"/>
		</linearGradient>
		<path id="path4644" inkscape:connector-curvature="0" fill="url(#path4644_1_)" d="M339.576,974.904
			c44.229,140.378,151.436,252.875,287.969,304.795l176.436-304.795"/>
		
			<linearGradient id="SVGID_2_" gradientUnits="userSpaceOnUse" x1="502.3103" y1="369.5228" x2="502.3102" y2="1685.6621" gradientTransform="matrix(1 0 0 1 5.590082e-006 4.309296e-005)">
			<stop  offset="0" style="stop-color:#FF512F;stop-opacity:0.9412"/>
			<stop  offset="1" style="stop-color:#DD247F;stop-opacity:0.9412"/>
		</linearGradient>
		<path fill="url(#SVGID_2_)" d="M631.872,830.677L456.903,527.847c-2.481-3.338-7.438-8.521-14.569-9.012
			c-4.357-0.3-8.548,1.174-12.013,3.051c-70.461,82.456-112.86,190.959-112.86,308.792c0,32.691,3.365,64.901,9.615,96.149h360.082
			L631.872,830.677z"/>
		
			<linearGradient id="SVGID_3_" gradientUnits="userSpaceOnUse" x1="1102.3156" y1="366.0733" x2="1102.3156" y2="1673.9795" gradientTransform="matrix(1 0 0 1 5.590082e-006 4.309296e-005)">
			<stop  offset="0" style="stop-color:#FF512F;stop-opacity:0.9412"/>
			<stop  offset="1" style="stop-color:#DD247F;stop-opacity:0.9412"/>
		</linearGradient>
		<path fill="url(#SVGID_3_)" d="M1152.825,1140.005c8.428-0.28,17.554-7.322,21.284-10.522
			c65.653-82.093,104.853-185.939,104.853-298.804c-0.001-23.154-1.646-45.838-4.761-67.891
			c-2.222-8.935-5.802-19.688-10.612-22.447c-5.549-3.183-14.846-4.919-21.603-5.811H954.458
			c-11.659,1.339-24.882,3.914-27.783,8.803c-3.754,6.326,3.835,25.396,9.195,37.182l194.257,336.685
			C1137.518,1128.14,1147.009,1140.198,1152.825,1140.005z"/>
		<path fill="#FFFFFF" d="M857.523,688.137l-65.923-1.206l35.338-60.07c0,0-21.782,39.617-16.755,48.97
			C815.357,685.453,857.523,688.137,857.523,688.137z"/>
		<path fill="#FFFFFF" d="M703.273,707.066l-32.941,57.149l-32.994-57.054c0,0,21.683,35.308,32.301,35.42
			C680.563,742.697,703.273,707.066,703.273,707.066z"/>
		<path fill="#FFFFFF" d="M654.928,870.244l33.073,57.04l-65.935,0.123c0,0,41.419-1.142,46.821-10.283
			C674.446,907.718,654.928,870.244,654.928,870.244z"/>
		<path fill="#FFFFFF" d="M738.889,974.062l65.934,0.376l-33.292,56.913c0,0,19.995-36.292,14.85-45.579
			C781.087,976.214,738.889,974.062,738.889,974.062z"/>
		
			<linearGradient id="SVGID_4_" gradientUnits="userSpaceOnUse" x1="697.1868" y1="352.1645" x2="697.1867" y2="1642.2817" gradientTransform="matrix(1 0 0 1 5.590082e-006 4.309296e-005)">
			<stop  offset="0" style="stop-color:#FF512F;stop-opacity:0.9412"/>
			<stop  offset="1" style="stop-color:#DD247F;stop-opacity:0.9412"/>
		</linearGradient>
		<path fill="url(#SVGID_4_)" d="M890.866,366.985c-3.573-5.202-11.587-8.845-17.721-10.997c-24.365-3.86-49.282-6.059-74.933-6.059
			c-109.931,0-211.134,36.659-291.966,98.75c-1.67,2.032-3.39,5.002-4.402,9.276c-1.416,5.979,1.658,14.659,4.62,21.11
			l137.494,238.549c2.786,4.488,16.219,25.31,25.692,25.421c7.209,0.084,19.175-14.333,26.483-24.151l195.444-338.442
			C893.081,376.351,893.802,371.262,890.866,366.985z"/>
		
			<linearGradient id="SVGID_5_" gradientUnits="userSpaceOnUse" x1="1027.6953" y1="359.3031" x2="1027.6953" y2="1687.6484" gradientTransform="matrix(1 0 0 1 5.590082e-006 4.309296e-005)">
			<stop  offset="0" style="stop-color:#FF512F;stop-opacity:0.9412"/>
			<stop  offset="1" style="stop-color:#DD247F;stop-opacity:0.9412"/>
		</linearGradient>
		<path fill="url(#SVGID_5_)" d="M1245.058,678.353c3.595-7.029,2.558-16.174,1.705-20.708
			c-46.914-121.513-141.73-218.53-260.838-269.116c-4.047-0.73-10.651-1.033-17.29,2.462c-5.003,2.634-8.754,6.925-11.212,10.455
			L812.438,651.908c-3.594,9.305-6.187,18.968-3.573,23.044c4.676,7.291,31.711,10.488,42.719,11.5h375.101
			C1234.184,685.454,1242.556,683.243,1245.058,678.353z"/>
		<path fill="#FFFFFF" d="M644.285,1250.779l-14.105,33.107l-33.388-17.131c0,0,25.903,11.083,34.23,4.496
			C639.592,1264.474,644.285,1250.779,644.285,1250.779z"/>
		<path fill="#FFFFFF" d="M351.375,1010.345l-13.266-36.43l28.639,0.989c0,0-17.567-0.163-19.263,10.318
			C345.738,996.008,351.375,1010.345,351.375,1010.345z"/>
		<path fill="#FFFFFF" d="M357.903,927.669h-30.916l-5.514-27.021c0,0,3.02,15.944,12.214,21.255
			C343.163,927.377,357.903,927.669,357.903,927.669z"/>
	</g>
</g>
</svg>
