<?xml version="1.0" encoding="utf-8"?>
<!-- Generator: Adobe Illustrator 16.0.0, SVG Export Plug-In . SVG Version: 6.00 Build 0)  -->
<!DOCTYPE svg PUBLIC "-//W3C//DTD SVG 1.1//EN" "http://www.w3.org/Graphics/SVG/1.1/DTD/svg11.dtd">
<svg version="1.1" id="Layer_1" xmlns="http://www.w3.org/2000/svg" xmlns:xlink="http://www.w3.org/1999/xlink" x="0px" y="0px"
	 width="800px" height="800px" viewBox="0 0 800 800" enable-background="new 0 0 800 800" xml:space="preserve">
<g>
	<radialGradient id="SVGID_1_" cx="400" cy="401.8477" r="400.2207" gradientUnits="userSpaceOnUse">
		<stop  offset="0" style="stop-color:#FFFFFF;stop-opacity:0.8"/>
		<stop  offset="0.2957" style="stop-color:#FFFFFF;stop-opacity:0.3"/>
		<stop  offset="1" style="stop-color:#FFFFFF;stop-opacity:0"/>
	</radialGradient>
	<path fill="url(#SVGID_1_)" d="M400.581,802.289c-9.849,0-19.764-0.362-29.512-1.077l29.083-397.457
		c0.21,0.015,0.514,0.019,0.796-0.003l29.539,397.425C420.597,801.913,410.534,802.287,400.581,802.289z M311.851,792.382
		c-19.499-4.423-38.827-10.37-57.447-17.674l145.259-371.046c0.055,0.021,0.102,0.034,0.154,0.047L311.851,792.382z M489.71,792.273
		l-88.444-388.564c0.051-0.013,0.091-0.023,0.137-0.042l145.707,370.87C528.51,781.859,509.198,787.826,489.71,792.273z
		 M200.32,748.639c-17.223-9.961-33.846-21.311-49.408-33.732l248.207-311.584c0.117,0.095,0.236,0.175,0.353,0.242L200.32,748.639z
		 M601.086,748.449L401.613,403.563c0.116-0.067,0.232-0.147,0.346-0.239l248.48,311.364
		C634.897,727.119,618.293,738.478,601.086,748.449z M107.146,674.292c-13.525-14.564-26.07-30.269-37.286-46.674l328.542-225.061
		c0.094,0.136,0.201,0.27,0.318,0.396L107.146,674.292z M694.165,674.043l-291.804-271.09c0.116-0.126,0.22-0.256,0.31-0.388
		l328.757,224.745C720.225,643.734,707.688,659.457,694.165,674.043z M39.843,575.773c-8.702-18.014-16.105-36.834-22.006-55.939
		l380.341-117.708c0.014,0.047,0.033,0.095,0.06,0.148L39.843,575.773z M761.408,575.417L402.849,402.26
		c0.022-0.046,0.04-0.088,0.052-0.131l380.475,117.277C777.489,538.537,770.099,557.383,761.408,575.417z M4.471,461.255
		C1.526,441.667,0.021,421.651,0,401.765l398.101-0.438c0.001,0.305,0.021,0.504,0.038,0.618L4.471,461.255z M796.134,460.821
		l-393.95-58.884c0.023-0.163-0.184-0.375-0.184-0.612V402h398v-0.675C800,421.211,799.058,441.229,796.134,460.821z
		 M398.137,400.715L4.342,342.262c2.93-19.783,7.382-39.498,13.234-58.599l380.602,116.858
		C398.168,400.556,398.152,400.614,398.137,400.715z M402.942,400.711c-0.011-0.074-0.024-0.135-0.042-0.187l380.211-118.129
		c5.917,19.083,10.435,38.785,13.432,58.56L402.942,400.711z M402.849,400.387c-0.049-0.1-0.109-0.204-0.18-0.307l328.311-225.398
		c11.263,16.439,21.377,33.863,30.061,51.787L402.849,400.387z M398.237,400.378L39.476,227.641
		c8.632-17.966,18.7-35.439,29.927-51.936l329.009,224.375C398.34,400.185,398.28,400.288,398.237,400.378z M398.719,399.699
		L106.618,128.928c13.493-14.586,28.192-28.281,43.69-40.701l248.799,311.107C398.972,399.443,398.841,399.565,398.719,399.699z
		 M402.354,399.69c-0.122-0.131-0.255-0.254-0.395-0.365L649.826,87.471c15.537,12.376,30.28,26.026,43.814,40.57L402.354,399.69z
		 M399.463,399.088L199.617,54.419c17.258-10.028,35.41-18.826,53.951-26.149l146.104,370.713
		C399.611,399.008,399.54,399.043,399.463,399.088z M401.609,399.084c-0.074-0.044-0.145-0.079-0.209-0.104L546.282,27.787
		c18.589,7.271,36.79,16.02,54.097,26.004L401.609,399.084z M401.272,398.942c-0.093-0.021-0.211-0.037-0.35-0.047L429.578,1.406
		c19.886,1.436,39.809,4.385,59.214,8.763L401.272,398.942z M399.808,398.942l-88.86-388.469
		c19.391-4.445,39.305-7.461,59.189-8.967l30.014,397.389C400.013,398.905,399.895,398.921,399.808,398.942z"/>
</g>
</svg>
